<?xml version="1.0" encoding="UTF-8" standalone="no"?>
<!DOCTYPE svg PUBLIC "-//W3C//DTD SVG 1.1//EN"
 "http://www.w3.org/Graphics/SVG/1.1/DTD/svg11.dtd">
<!-- Generated by graphviz version 2.26.3 (20100126.1600)
 -->
<!-- Title: G Pages: 1 -->
<svg width="510pt" height="1382pt"
 viewBox="0.00 0.00 510.00 1382.00" xmlns="http://www.w3.org/2000/svg" xmlns:xlink="http://www.w3.org/1999/xlink">
<g id="graph1" class="graph" transform="scale(1 1) rotate(0) translate(4 1378)">
<title>G</title>
<polygon fill="white" stroke="white" points="-4,5 -4,-1378 507,-1378 507,5 -4,5"/>
<g id="graph2" class="cluster"><title>cluster_Global</title>
<polyline fill="none" stroke="gray" points="168,-8 482,-8 "/>
<path fill="none" stroke="gray" d="M482,-8C488,-8 494,-14 494,-20"/>
<polyline fill="none" stroke="gray" points="494,-20 494,-1354 "/>
<path fill="none" stroke="gray" d="M494,-1354C494,-1360 488,-1366 482,-1366"/>
<polyline fill="none" stroke="gray" points="482,-1366 168,-1366 "/>
<path fill="none" stroke="gray" d="M168,-1366C162,-1366 156,-1360 156,-1354"/>
<polyline fill="none" stroke="gray" points="156,-1354 156,-20 "/>
<path fill="none" stroke="gray" d="M156,-20C156,-14 162,-8 168,-8"/>
<text text-anchor="middle" x="325" y="-1352.1" font-family="Times Roman,serif" font-size="11.00" fill="gray">Global</text>
</g>
<g id="graph3" class="cluster"><title>cluster_\View</title>
<polyline fill="none" stroke="gray" points="176,-1262 449,-1262 "/>
<path fill="none" stroke="gray" d="M449,-1262C455,-1262 461,-1268 461,-1274"/>
<polyline fill="none" stroke="gray" points="461,-1274 461,-1324 "/>
<path fill="none" stroke="gray" d="M461,-1324C461,-1330 455,-1336 449,-1336"/>
<polyline fill="none" stroke="gray" points="449,-1336 176,-1336 "/>
<path fill="none" stroke="gray" d="M176,-1336C170,-1336 164,-1330 164,-1324"/>
<polyline fill="none" stroke="gray" points="164,-1324 164,-1274 "/>
<path fill="none" stroke="gray" d="M164,-1274C164,-1268 170,-1262 176,-1262"/>
<text text-anchor="middle" x="312.5" y="-1322.1" font-family="Times Roman,serif" font-size="11.00" fill="gray">View</text>
</g>
<g id="graph4" class="cluster"><title>cluster_\Utility</title>
<polyline fill="none" stroke="gray" points="396,-1126 456,-1126 "/>
<path fill="none" stroke="gray" d="M456,-1126C462,-1126 468,-1132 468,-1138"/>
<polyline fill="none" stroke="gray" points="468,-1138 468,-1242 "/>
<path fill="none" stroke="gray" d="M468,-1242C468,-1248 462,-1254 456,-1254"/>
<polyline fill="none" stroke="gray" points="456,-1254 396,-1254 "/>
<path fill="none" stroke="gray" d="M396,-1254C390,-1254 384,-1248 384,-1242"/>
<polyline fill="none" stroke="gray" points="384,-1242 384,-1138 "/>
<path fill="none" stroke="gray" d="M384,-1138C384,-1132 390,-1126 396,-1126"/>
<text text-anchor="middle" x="426" y="-1240.1" font-family="Times Roman,serif" font-size="11.00" fill="gray">Utility</text>
</g>
<g id="graph5" class="cluster"><title>cluster_\Control</title>
<polyline fill="none" stroke="gray" points="378,-504 474,-504 "/>
<path fill="none" stroke="gray" d="M474,-504C480,-504 486,-510 486,-516"/>
<polyline fill="none" stroke="gray" points="486,-516 486,-1106 "/>
<path fill="none" stroke="gray" d="M486,-1106C486,-1112 480,-1118 474,-1118"/>
<polyline fill="none" stroke="gray" points="474,-1118 378,-1118 "/>
<path fill="none" stroke="gray" d="M378,-1118C372,-1118 366,-1112 366,-1106"/>
<polyline fill="none" stroke="gray" points="366,-1106 366,-516 "/>
<path fill="none" stroke="gray" d="M366,-516C366,-510 372,-504 378,-504"/>
<text text-anchor="middle" x="426" y="-1104.1" font-family="Times Roman,serif" font-size="11.00" fill="gray">Control</text>
</g>
<g id="graph6" class="cluster"><title>cluster_\Foundation</title>
<polyline fill="none" stroke="gray" points="206,-260 469,-260 "/>
<path fill="none" stroke="gray" d="M469,-260C475,-260 481,-266 481,-272"/>
<polyline fill="none" stroke="gray" points="481,-272 481,-484 "/>
<path fill="none" stroke="gray" d="M481,-484C481,-490 475,-496 469,-496"/>
<polyline fill="none" stroke="gray" points="469,-496 206,-496 "/>
<path fill="none" stroke="gray" d="M206,-496C200,-496 194,-490 194,-484"/>
<polyline fill="none" stroke="gray" points="194,-484 194,-272 "/>
<path fill="none" stroke="gray" d="M194,-272C194,-266 200,-260 206,-260"/>
<text text-anchor="middle" x="337.5" y="-482.1" font-family="Times Roman,serif" font-size="11.00" fill="gray">Foundation</text>
</g>
<g id="graph7" class="cluster"><title>cluster_\Entity</title>
<polyline fill="none" stroke="gray" points="383,-16 469,-16 "/>
<path fill="none" stroke="gray" d="M469,-16C475,-16 481,-22 481,-28"/>
<polyline fill="none" stroke="gray" points="481,-28 481,-240 "/>
<path fill="none" stroke="gray" d="M481,-240C481,-246 475,-252 469,-252"/>
<polyline fill="none" stroke="gray" points="469,-252 383,-252 "/>
<path fill="none" stroke="gray" d="M383,-252C377,-252 371,-246 371,-240"/>
<polyline fill="none" stroke="gray" points="371,-240 371,-28 "/>
<path fill="none" stroke="gray" d="M371,-28C371,-22 377,-16 383,-16"/>
<text text-anchor="middle" x="426" y="-238.1" font-family="Times Roman,serif" font-size="11.00" fill="gray">Entity</text>
</g>
<!-- \\View\\SmartyConfiguration -->
<g id="node3" class="node"><title>\\View\\SmartyConfiguration</title>
<polygon fill="none" stroke="black" points="302,-1306 172,-1306 172,-1270 302,-1270 302,-1306"/>
<text text-anchor="middle" x="237" y="-1285.1" font-family="Times Roman,serif" font-size="11.00">SmartyConfiguration</text>
</g>
<!-- \\Smarty -->
<g id="node32" class="node"><title>\\Smarty</title>
<ellipse fill="none" stroke="black" cx="50" cy="-1288" rx="50.2046" ry="18.3848"/>
<text text-anchor="middle" x="50" y="-1284.4" font-family="Times Roman,serif" font-size="14.00" fill="gray">\Smarty</text>
</g>
<!-- \\View\\SmartyConfiguration&#45;&gt;\\Smarty -->
<g id="edge8" class="edge"><title>\\View\\SmartyConfiguration&#45;&gt;\\Smarty</title>
<path fill="none" stroke="black" d="M171.859,-1288C151.843,-1288 129.911,-1288 110.238,-1288"/>
<polygon fill="none" stroke="black" points="110.178,-1284.5 100.178,-1288 110.178,-1291.5 110.178,-1284.5"/>
</g>
<!-- \\View\\Main -->
<g id="node4" class="node"><title>\\View\\Main</title>
<polygon fill="none" stroke="black" points="453,-1306 399,-1306 399,-1270 453,-1270 453,-1306"/>
<text text-anchor="middle" x="426" y="-1285.1" font-family="Times Roman,serif" font-size="11.00">Main</text>
</g>
<!-- \\View\\Main&#45;&gt;\\View\\SmartyConfiguration -->
<g id="edge10" class="edge"><title>\\View\\Main&#45;&gt;\\View\\SmartyConfiguration</title>
<path fill="none" stroke="black" d="M398.921,-1288C376.362,-1288 343.106,-1288 312.593,-1288"/>
<polygon fill="none" stroke="black" points="312.37,-1284.5 302.37,-1288 312.37,-1291.5 312.37,-1284.5"/>
</g>
<!-- \\Utility\\Installer -->
<g id="node6" class="node"><title>\\Utility\\Installer</title>
<polygon fill="none" stroke="black" points="455,-1224 397,-1224 397,-1188 455,-1188 455,-1224"/>
<text text-anchor="middle" x="426" y="-1203.1" font-family="Times Roman,serif" font-size="11.00">Installer</text>
</g>
<!-- \\Utility\\Singleton -->
<g id="node7" class="node"><title>\\Utility\\Singleton</title>
<polygon fill="none" stroke="black" points="459,-1170 393,-1170 393,-1134 459,-1134 459,-1170"/>
<text text-anchor="middle" x="426" y="-1149.1" font-family="Times Roman,serif" font-size="11.00">Singleton</text>
</g>
<!-- \\Control\\Session -->
<g id="node9" class="node"><title>\\Control\\Session</title>
<polygon fill="none" stroke="black" points="455,-1088 397,-1088 397,-1052 455,-1052 455,-1088"/>
<text text-anchor="middle" x="426" y="-1067.1" font-family="Times Roman,serif" font-size="11.00">Session</text>
</g>
<!-- \\Control\\Login -->
<g id="node10" class="node"><title>\\Control\\Login</title>
<polygon fill="none" stroke="black" points="453,-1034 399,-1034 399,-998 453,-998 453,-1034"/>
<text text-anchor="middle" x="426" y="-1013.1" font-family="Times Roman,serif" font-size="11.00">Login</text>
</g>
<!-- \\Control\\Navigation -->
<g id="node11" class="node"><title>\\Control\\Navigation</title>
<polygon fill="none" stroke="black" points="463,-980 389,-980 389,-944 463,-944 463,-980"/>
<text text-anchor="middle" x="426" y="-959.1" font-family="Times Roman,serif" font-size="11.00">Navigation</text>
</g>
<!-- \\Control\\AboutPage -->
<g id="node12" class="node"><title>\\Control\\AboutPage</title>
<polygon fill="none" stroke="black" points="463,-926 389,-926 389,-890 463,-890 463,-926"/>
<text text-anchor="middle" x="426" y="-905.1" font-family="Times Roman,serif" font-size="11.00">AboutPage</text>
</g>
<!-- \\Control\\Registration -->
<g id="node13" class="node"><title>\\Control\\Registration</title>
<polygon fill="none" stroke="black" points="466,-872 386,-872 386,-836 466,-836 466,-872"/>
<text text-anchor="middle" x="426" y="-851.1" font-family="Times Roman,serif" font-size="11.00">Registration</text>
</g>
<!-- \\Control\\DevelopersPage -->
<g id="node14" class="node"><title>\\Control\\DevelopersPage</title>
<polygon fill="none" stroke="black" points="478,-818 374,-818 374,-782 478,-782 478,-818"/>
<text text-anchor="middle" x="426" y="-797.1" font-family="Times Roman,serif" font-size="11.00">DevelopersPage</text>
</g>
<!-- \\Control\\Main -->
<g id="node15" class="node"><title>\\Control\\Main</title>
<polygon fill="none" stroke="black" points="453,-764 399,-764 399,-728 453,-728 453,-764"/>
<text text-anchor="middle" x="426" y="-743.1" font-family="Times Roman,serif" font-size="11.00">Main</text>
</g>
<!-- \\Control\\Profile -->
<g id="node16" class="node"><title>\\Control\\Profile</title>
<polygon fill="none" stroke="black" points="453,-710 399,-710 399,-674 453,-674 453,-710"/>
<text text-anchor="middle" x="426" y="-689.1" font-family="Times Roman,serif" font-size="11.00">Profile</text>
</g>
<!-- \\Control\\Resource -->
<g id="node17" class="node"><title>\\Control\\Resource</title>
<polygon fill="none" stroke="black" points="459,-656 393,-656 393,-620 459,-620 459,-656"/>
<text text-anchor="middle" x="426" y="-635.1" font-family="Times Roman,serif" font-size="11.00">Resource</text>
</g>
<!-- \\Control\\Home -->
<g id="node18" class="node"><title>\\Control\\Home</title>
<polygon fill="none" stroke="black" points="453,-602 399,-602 399,-566 453,-566 453,-602"/>
<text text-anchor="middle" x="426" y="-581.1" font-family="Times Roman,serif" font-size="11.00">Home</text>
</g>
<!-- \\Control\\Upload -->
<g id="node19" class="node"><title>\\Control\\Upload</title>
<polygon fill="none" stroke="black" points="453,-548 399,-548 399,-512 453,-512 453,-548"/>
<text text-anchor="middle" x="426" y="-527.1" font-family="Times Roman,serif" font-size="11.00">Upload</text>
</g>
<!-- \\Foundation\\User -->
<g id="node21" class="node"><title>\\Foundation\\User</title>
<polygon fill="none" stroke="black" points="453,-466 399,-466 399,-430 453,-430 453,-466"/>
<text text-anchor="middle" x="426" y="-445.1" font-family="Times Roman,serif" font-size="11.00">User</text>
</g>
<!-- \\Foundation\\Database -->
<g id="node22" class="node"><title>\\Foundation\\Database</title>
<polygon fill="none" stroke="black" points="271,-385 203,-385 203,-349 271,-349 271,-385"/>
<text text-anchor="middle" x="237" y="-364.1" font-family="Times Roman,serif" font-size="11.00">Database</text>
</g>
<!-- \\Foundation\\User&#45;&gt;\\Foundation\\Database -->
<g id="edge12" class="edge"><title>\\Foundation\\User&#45;&gt;\\Foundation\\Database</title>
<path fill="none" stroke="black" d="M398.921,-436.395C368.188,-423.223 317.604,-401.545 281.146,-385.92"/>
<polygon fill="none" stroke="black" points="282.304,-382.608 271.734,-381.886 279.547,-389.042 282.304,-382.608"/>
</g>
<!-- \\mysqli -->
<g id="node36" class="node"><title>\\mysqli</title>
<ellipse fill="none" stroke="black" cx="50" cy="-367" rx="45.9619" ry="18.3848"/>
<text text-anchor="middle" x="50" y="-363.4" font-family="Times Roman,serif" font-size="14.00" fill="gray">\mysqli</text>
</g>
<!-- \\Foundation\\Database&#45;&gt;\\mysqli -->
<g id="edge14" class="edge"><title>\\Foundation\\Database&#45;&gt;\\mysqli</title>
<path fill="none" stroke="black" d="M202.265,-367C175.41,-367 137.677,-367 106.493,-367"/>
<polygon fill="none" stroke="black" points="106.194,-363.5 96.1938,-367 106.194,-370.5 106.194,-363.5"/>
</g>
<!-- \\Foundation\\Resource -->
<g id="node23" class="node"><title>\\Foundation\\Resource</title>
<polygon fill="none" stroke="black" points="459,-412 393,-412 393,-376 459,-376 459,-412"/>
<text text-anchor="middle" x="426" y="-391.1" font-family="Times Roman,serif" font-size="11.00">Resource</text>
</g>
<!-- \\Foundation\\Resource&#45;&gt;\\Foundation\\Database -->
<g id="edge16" class="edge"><title>\\Foundation\\Resource&#45;&gt;\\Foundation\\Database</title>
<path fill="none" stroke="black" d="M392.211,-389.173C361.419,-384.774 315.714,-378.245 281.869,-373.41"/>
<polygon fill="none" stroke="black" points="282.17,-369.917 271.776,-371.968 281.18,-376.847 282.17,-369.917"/>
</g>
<!-- \\Foundation\\DegreeCourse -->
<g id="node24" class="node"><title>\\Foundation\\DegreeCourse</title>
<polygon fill="none" stroke="black" points="473,-358 379,-358 379,-322 473,-322 473,-358"/>
<text text-anchor="middle" x="426" y="-337.1" font-family="Times Roman,serif" font-size="11.00">DegreeCourse</text>
</g>
<!-- \\Foundation\\DegreeCourse&#45;&gt;\\Foundation\\Database -->
<g id="edge18" class="edge"><title>\\Foundation\\DegreeCourse&#45;&gt;\\Foundation\\Database</title>
<path fill="none" stroke="black" d="M378.795,-346.744C349.062,-350.991 310.913,-356.441 281.676,-360.618"/>
<polygon fill="none" stroke="black" points="281.139,-357.159 271.734,-362.038 282.129,-364.088 281.139,-357.159"/>
</g>
<!-- \\Foundation\\Subject -->
<g id="node25" class="node"><title>\\Foundation\\Subject</title>
<polygon fill="none" stroke="black" points="454,-304 398,-304 398,-268 454,-268 454,-304"/>
<text text-anchor="middle" x="426" y="-283.1" font-family="Times Roman,serif" font-size="11.00">Subject</text>
</g>
<!-- \\Foundation\\Subject&#45;&gt;\\Foundation\\Database -->
<g id="edge20" class="edge"><title>\\Foundation\\Subject&#45;&gt;\\Foundation\\Database</title>
<path fill="none" stroke="black" d="M397.295,-298.302C366.392,-311.546 316.853,-332.777 281.02,-348.134"/>
<polygon fill="none" stroke="black" points="279.578,-344.944 271.765,-352.101 282.335,-351.378 279.578,-344.944"/>
</g>
<!-- \\Entity\\User -->
<g id="node27" class="node"><title>\\Entity\\User</title>
<polygon fill="none" stroke="black" points="453,-222 399,-222 399,-186 453,-186 453,-222"/>
<text text-anchor="middle" x="426" y="-201.1" font-family="Times Roman,serif" font-size="11.00">User</text>
</g>
<!-- \\Entity\\Resource -->
<g id="node28" class="node"><title>\\Entity\\Resource</title>
<polygon fill="none" stroke="black" points="459,-168 393,-168 393,-132 459,-132 459,-168"/>
<text text-anchor="middle" x="426" y="-147.1" font-family="Times Roman,serif" font-size="11.00">Resource</text>
</g>
<!-- \\Entity\\DegreeCourse -->
<g id="node29" class="node"><title>\\Entity\\DegreeCourse</title>
<polygon fill="none" stroke="black" points="473,-114 379,-114 379,-78 473,-78 473,-114"/>
<text text-anchor="middle" x="426" y="-93.1" font-family="Times Roman,serif" font-size="11.00">DegreeCourse</text>
</g>
<!-- \\Entity\\Subject -->
<g id="node30" class="node"><title>\\Entity\\Subject</title>
<polygon fill="none" stroke="black" points="454,-60 398,-60 398,-24 454,-24 454,-60"/>
<text text-anchor="middle" x="426" y="-39.1" font-family="Times Roman,serif" font-size="11.00">Subject</text>
</g>
</g>
</svg>
